<mxfile host="app.diagrams.net" modified="2024-07-14T17:50:51.960Z" agent="Mozilla/5.0 (Windows NT 10.0; Win64; x64) AppleWebKit/537.36 (KHTML, like Gecko) Chrome/126.0.0.0 Safari/537.36" version="24.6.5" etag="GL9EqLMKNosCQXWoOreo" type="device">
  <diagram id="X3hZ0heYDdzXQcUGIfDG" name="Page-1">
    <mxGraphModel dx="454" dy="304" grid="1" gridSize="10" guides="1" tooltips="1" connect="1" arrows="1" fold="1" page="1" pageScale="1" pageWidth="827" pageHeight="1169" math="0" shadow="0">
      <root>
        <mxCell id="0" />
        <mxCell id="1" parent="0" />
        <mxCell id="SyQa6RfPvhrmWZgXi87a-6" style="edgeStyle=orthogonalEdgeStyle;rounded=0;orthogonalLoop=1;jettySize=auto;html=1;entryX=0.5;entryY=0;entryDx=0;entryDy=0;" edge="1" parent="1" source="SyQa6RfPvhrmWZgXi87a-1" target="SyQa6RfPvhrmWZgXi87a-2">
          <mxGeometry relative="1" as="geometry" />
        </mxCell>
        <mxCell id="SyQa6RfPvhrmWZgXi87a-1" value="&lt;font style=&quot;font-size: 11px;&quot;&gt;Lupa Password&lt;/font&gt;" style="rounded=1;whiteSpace=wrap;html=1;" vertex="1" parent="1">
          <mxGeometry x="290" y="20" width="90" height="20" as="geometry" />
        </mxCell>
        <mxCell id="SyQa6RfPvhrmWZgXi87a-8" value="" style="edgeStyle=orthogonalEdgeStyle;rounded=0;orthogonalLoop=1;jettySize=auto;html=1;" edge="1" parent="1" source="SyQa6RfPvhrmWZgXi87a-2" target="SyQa6RfPvhrmWZgXi87a-7">
          <mxGeometry relative="1" as="geometry" />
        </mxCell>
        <mxCell id="SyQa6RfPvhrmWZgXi87a-2" value="&lt;font style=&quot;font-size: 11px;&quot;&gt;Post:Forgot Password&lt;/font&gt;" style="rounded=1;whiteSpace=wrap;html=1;" vertex="1" parent="1">
          <mxGeometry x="275" y="60" width="120" height="20" as="geometry" />
        </mxCell>
        <mxCell id="SyQa6RfPvhrmWZgXi87a-10" value="" style="edgeStyle=orthogonalEdgeStyle;rounded=0;orthogonalLoop=1;jettySize=auto;html=1;" edge="1" parent="1" source="SyQa6RfPvhrmWZgXi87a-7" target="SyQa6RfPvhrmWZgXi87a-9">
          <mxGeometry relative="1" as="geometry" />
        </mxCell>
        <mxCell id="SyQa6RfPvhrmWZgXi87a-7" value="&lt;div&gt;&lt;span style=&quot;font-size: 11px;&quot;&gt;Ekstrak email dari req.body |&lt;/span&gt;&lt;/div&gt;&lt;div&gt;&lt;span style=&quot;font-size: 11px;&quot;&gt;| const { email } = req.body&lt;/span&gt;&lt;/div&gt;" style="rounded=1;whiteSpace=wrap;html=1;" vertex="1" parent="1">
          <mxGeometry x="262.5" y="100" width="145" height="30" as="geometry" />
        </mxCell>
        <mxCell id="SyQa6RfPvhrmWZgXi87a-13" value="" style="edgeStyle=orthogonalEdgeStyle;rounded=0;orthogonalLoop=1;jettySize=auto;html=1;" edge="1" parent="1" source="SyQa6RfPvhrmWZgXi87a-9" target="SyQa6RfPvhrmWZgXi87a-12">
          <mxGeometry relative="1" as="geometry" />
        </mxCell>
        <mxCell id="SyQa6RfPvhrmWZgXi87a-9" value="&lt;div&gt;&lt;span style=&quot;font-size: 11px;&quot;&gt;Query Database Untuk Email&lt;/span&gt;&lt;/div&gt;&lt;div&gt;(&#39;SELECT * FROM login WHERE email = ?&#39;, [email])&lt;span style=&quot;font-size: 11px;&quot;&gt;&lt;br&gt;&lt;/span&gt;&lt;/div&gt;" style="rounded=1;whiteSpace=wrap;html=1;" vertex="1" parent="1">
          <mxGeometry x="191.25" y="150" width="287.5" height="30" as="geometry" />
        </mxCell>
        <mxCell id="SyQa6RfPvhrmWZgXi87a-15" value="" style="edgeStyle=orthogonalEdgeStyle;rounded=0;orthogonalLoop=1;jettySize=auto;html=1;" edge="1" parent="1" source="SyQa6RfPvhrmWZgXi87a-12" target="SyQa6RfPvhrmWZgXi87a-14">
          <mxGeometry relative="1" as="geometry" />
        </mxCell>
        <mxCell id="SyQa6RfPvhrmWZgXi87a-16" value="Text" style="edgeLabel;html=1;align=center;verticalAlign=middle;resizable=0;points=[];" vertex="1" connectable="0" parent="SyQa6RfPvhrmWZgXi87a-15">
          <mxGeometry x="0.0407" relative="1" as="geometry">
            <mxPoint as="offset" />
          </mxGeometry>
        </mxCell>
        <mxCell id="SyQa6RfPvhrmWZgXi87a-18" value="" style="edgeStyle=orthogonalEdgeStyle;rounded=0;orthogonalLoop=1;jettySize=auto;html=1;" edge="1" parent="1" source="SyQa6RfPvhrmWZgXi87a-12" target="SyQa6RfPvhrmWZgXi87a-17">
          <mxGeometry relative="1" as="geometry" />
        </mxCell>
        <mxCell id="SyQa6RfPvhrmWZgXi87a-19" value="Yes" style="edgeLabel;html=1;align=center;verticalAlign=middle;resizable=0;points=[];" vertex="1" connectable="0" parent="SyQa6RfPvhrmWZgXi87a-18">
          <mxGeometry x="-0.6133" y="-2" relative="1" as="geometry">
            <mxPoint as="offset" />
          </mxGeometry>
        </mxCell>
        <mxCell id="SyQa6RfPvhrmWZgXi87a-12" value="&lt;font style=&quot;font-size: 11px;&quot;&gt;Apakah Email Ditemukan&lt;/font&gt;" style="rhombus;whiteSpace=wrap;html=1;" vertex="1" parent="1">
          <mxGeometry x="295" y="200" width="80" height="80" as="geometry" />
        </mxCell>
        <mxCell id="SyQa6RfPvhrmWZgXi87a-14" value="&lt;div&gt;&lt;span style=&quot;font-size: 11px;&quot;&gt;Return &quot;Email Not Found&quot;&lt;/span&gt;&lt;/div&gt;" style="rounded=1;whiteSpace=wrap;html=1;" vertex="1" parent="1">
          <mxGeometry x="494.53" y="232.5" width="130" height="15" as="geometry" />
        </mxCell>
        <mxCell id="SyQa6RfPvhrmWZgXi87a-22" value="" style="edgeStyle=orthogonalEdgeStyle;rounded=0;orthogonalLoop=1;jettySize=auto;html=1;" edge="1" parent="1" source="SyQa6RfPvhrmWZgXi87a-17" target="SyQa6RfPvhrmWZgXi87a-21">
          <mxGeometry relative="1" as="geometry" />
        </mxCell>
        <mxCell id="SyQa6RfPvhrmWZgXi87a-17" value="&lt;div&gt;&lt;span style=&quot;font-size: 11px;&quot;&gt;Generate Random Token Menggunakan Crypto dan Atur Masa Berlaku Token&lt;/span&gt;&lt;/div&gt;" style="rounded=1;whiteSpace=wrap;html=1;" vertex="1" parent="1">
          <mxGeometry x="235" y="310" width="200" height="30" as="geometry" />
        </mxCell>
        <mxCell id="SyQa6RfPvhrmWZgXi87a-24" value="" style="edgeStyle=orthogonalEdgeStyle;rounded=0;orthogonalLoop=1;jettySize=auto;html=1;" edge="1" parent="1" source="SyQa6RfPvhrmWZgXi87a-21" target="SyQa6RfPvhrmWZgXi87a-23">
          <mxGeometry relative="1" as="geometry" />
        </mxCell>
        <mxCell id="SyQa6RfPvhrmWZgXi87a-21" value="&lt;div&gt;&lt;span style=&quot;font-size: 11px;&quot;&gt;Update Database Dengan Token dan Masa Berlakunya&amp;nbsp;&lt;/span&gt;&lt;span style=&quot;background-color: initial;&quot;&gt;UPDATE login SET        |reset_password_token = ?, reset_password expires = ? WHERE email = ?&#39;, [resetPasswordToken, resetPasswordExpires, email&lt;/span&gt;&lt;/div&gt;" style="rounded=1;whiteSpace=wrap;html=1;" vertex="1" parent="1">
          <mxGeometry x="145.63" y="360" width="378.75" height="40" as="geometry" />
        </mxCell>
        <mxCell id="SyQa6RfPvhrmWZgXi87a-26" value="" style="edgeStyle=orthogonalEdgeStyle;rounded=0;orthogonalLoop=1;jettySize=auto;html=1;" edge="1" parent="1" source="SyQa6RfPvhrmWZgXi87a-23" target="SyQa6RfPvhrmWZgXi87a-25">
          <mxGeometry relative="1" as="geometry" />
        </mxCell>
        <mxCell id="SyQa6RfPvhrmWZgXi87a-23" value="&lt;div&gt;&lt;span style=&quot;font-size: 11px;&quot;&gt;Buat Transport Untuk Nodemailer berupa isi Email dan Link beserta token&lt;/span&gt;&lt;/div&gt;" style="rounded=1;whiteSpace=wrap;html=1;" vertex="1" parent="1">
          <mxGeometry x="235" y="420" width="200" height="30" as="geometry" />
        </mxCell>
        <mxCell id="SyQa6RfPvhrmWZgXi87a-29" value="" style="edgeStyle=orthogonalEdgeStyle;rounded=0;orthogonalLoop=1;jettySize=auto;html=1;" edge="1" parent="1" source="SyQa6RfPvhrmWZgXi87a-25" target="SyQa6RfPvhrmWZgXi87a-27">
          <mxGeometry relative="1" as="geometry" />
        </mxCell>
        <mxCell id="SyQa6RfPvhrmWZgXi87a-25" value="&lt;span style=&quot;font-size: 11px;&quot;&gt;Persiapkan Opsi Email&lt;/span&gt;" style="rounded=1;whiteSpace=wrap;html=1;" vertex="1" parent="1">
          <mxGeometry x="277.5" y="470" width="115" height="20" as="geometry" />
        </mxCell>
        <mxCell id="SyQa6RfPvhrmWZgXi87a-31" value="" style="edgeStyle=orthogonalEdgeStyle;rounded=0;orthogonalLoop=1;jettySize=auto;html=1;" edge="1" parent="1" source="SyQa6RfPvhrmWZgXi87a-27" target="SyQa6RfPvhrmWZgXi87a-30">
          <mxGeometry relative="1" as="geometry" />
        </mxCell>
        <mxCell id="SyQa6RfPvhrmWZgXi87a-27" value="&lt;span style=&quot;font-size: 11px;&quot;&gt;Kirim Email ke Tujuan Menggunakan Nodemailer&lt;/span&gt;" style="rounded=1;whiteSpace=wrap;html=1;" vertex="1" parent="1">
          <mxGeometry x="213.75" y="510" width="242.5" height="20" as="geometry" />
        </mxCell>
        <mxCell id="SyQa6RfPvhrmWZgXi87a-33" value="" style="edgeStyle=orthogonalEdgeStyle;rounded=0;orthogonalLoop=1;jettySize=auto;html=1;" edge="1" parent="1" source="SyQa6RfPvhrmWZgXi87a-30" target="SyQa6RfPvhrmWZgXi87a-32">
          <mxGeometry relative="1" as="geometry" />
        </mxCell>
        <mxCell id="SyQa6RfPvhrmWZgXi87a-30" value="&lt;span style=&quot;font-size: 11px;&quot;&gt;Return Succes Message (Email Telah Berhasil Dikirimke Tujuan&lt;/span&gt;" style="rounded=1;whiteSpace=wrap;html=1;" vertex="1" parent="1">
          <mxGeometry x="251.88" y="550" width="166.25" height="30" as="geometry" />
        </mxCell>
        <mxCell id="SyQa6RfPvhrmWZgXi87a-35" value="" style="edgeStyle=orthogonalEdgeStyle;rounded=0;orthogonalLoop=1;jettySize=auto;html=1;" edge="1" parent="1" source="SyQa6RfPvhrmWZgXi87a-32" target="SyQa6RfPvhrmWZgXi87a-34">
          <mxGeometry relative="1" as="geometry" />
        </mxCell>
        <mxCell id="SyQa6RfPvhrmWZgXi87a-32" value="&lt;span style=&quot;font-size: 11px;&quot;&gt;Klik Link yang Telah Dikirim ke Email&lt;/span&gt;&lt;div&gt;Link:(/reset-password/:token)&lt;span style=&quot;font-size: 11px;&quot;&gt;&lt;br&gt;&lt;/span&gt;&lt;/div&gt;" style="rounded=1;whiteSpace=wrap;html=1;" vertex="1" parent="1">
          <mxGeometry x="240.94" y="600" width="188.12" height="30" as="geometry" />
        </mxCell>
        <mxCell id="SyQa6RfPvhrmWZgXi87a-37" value="" style="edgeStyle=orthogonalEdgeStyle;rounded=0;orthogonalLoop=1;jettySize=auto;html=1;" edge="1" parent="1" source="SyQa6RfPvhrmWZgXi87a-34" target="SyQa6RfPvhrmWZgXi87a-36">
          <mxGeometry relative="1" as="geometry" />
        </mxCell>
        <mxCell id="SyQa6RfPvhrmWZgXi87a-34" value="&lt;div style=&quot;&quot;&gt;&lt;span style=&quot;font-size: 11px;&quot;&gt;Ekstrak token dari req.params&amp;nbsp;&lt;/span&gt;&lt;span style=&quot;font-size: 11px; background-color: initial;&quot;&gt;const { token } = req.params&amp;nbsp;&lt;/span&gt;&lt;span style=&quot;font-size: 11px; background-color: initial;&quot;&gt;dan kata sandi dari req.body&amp;nbsp;&lt;/span&gt;&lt;span style=&quot;font-size: 11px; background-color: initial;&quot;&gt;const { password } = req.body&lt;/span&gt;&lt;/div&gt;" style="rounded=1;whiteSpace=wrap;html=1;" vertex="1" parent="1">
          <mxGeometry x="175.47" y="660" width="319.06" height="30" as="geometry" />
        </mxCell>
        <mxCell id="SyQa6RfPvhrmWZgXi87a-39" value="" style="edgeStyle=orthogonalEdgeStyle;rounded=0;orthogonalLoop=1;jettySize=auto;html=1;" edge="1" parent="1" source="SyQa6RfPvhrmWZgXi87a-36" target="SyQa6RfPvhrmWZgXi87a-38">
          <mxGeometry relative="1" as="geometry" />
        </mxCell>
        <mxCell id="SyQa6RfPvhrmWZgXi87a-36" value="&lt;div style=&quot;&quot;&gt;&lt;span style=&quot;font-size: 11px;&quot;&gt;Query Database untuk token dan kedaluwarsa (&#39;SELECT * FROM login WHERE reset_password_token = ? AND reset_password_expires &amp;gt; ?&#39;, [token, Date.now()])&lt;/span&gt;&lt;br&gt;&lt;/div&gt;" style="rounded=1;whiteSpace=wrap;html=1;" vertex="1" parent="1">
          <mxGeometry x="186.37" y="710" width="297.26" height="60" as="geometry" />
        </mxCell>
        <mxCell id="SyQa6RfPvhrmWZgXi87a-41" value="" style="edgeStyle=orthogonalEdgeStyle;rounded=0;orthogonalLoop=1;jettySize=auto;html=1;" edge="1" parent="1" source="SyQa6RfPvhrmWZgXi87a-38" target="SyQa6RfPvhrmWZgXi87a-40">
          <mxGeometry relative="1" as="geometry" />
        </mxCell>
        <mxCell id="SyQa6RfPvhrmWZgXi87a-42" value="No" style="edgeLabel;html=1;align=center;verticalAlign=middle;resizable=0;points=[];" vertex="1" connectable="0" parent="SyQa6RfPvhrmWZgXi87a-41">
          <mxGeometry x="-0.2323" y="1" relative="1" as="geometry">
            <mxPoint as="offset" />
          </mxGeometry>
        </mxCell>
        <mxCell id="SyQa6RfPvhrmWZgXi87a-44" value="" style="edgeStyle=orthogonalEdgeStyle;rounded=0;orthogonalLoop=1;jettySize=auto;html=1;" edge="1" parent="1" source="SyQa6RfPvhrmWZgXi87a-38" target="SyQa6RfPvhrmWZgXi87a-43">
          <mxGeometry relative="1" as="geometry" />
        </mxCell>
        <mxCell id="SyQa6RfPvhrmWZgXi87a-46" value="Yes" style="edgeLabel;html=1;align=center;verticalAlign=middle;resizable=0;points=[];" vertex="1" connectable="0" parent="SyQa6RfPvhrmWZgXi87a-44">
          <mxGeometry x="-0.5689" relative="1" as="geometry">
            <mxPoint y="1" as="offset" />
          </mxGeometry>
        </mxCell>
        <mxCell id="SyQa6RfPvhrmWZgXi87a-38" value="&lt;font style=&quot;font-size: 11px;&quot;&gt;Apakah Token Valid dan Masih Berlaku&lt;/font&gt;" style="rhombus;whiteSpace=wrap;html=1;" vertex="1" parent="1">
          <mxGeometry x="287.5" y="790" width="95" height="100" as="geometry" />
        </mxCell>
        <mxCell id="SyQa6RfPvhrmWZgXi87a-40" value="Retun &quot;Token Tidak Valid Atau Kadaluwarsa" style="rounded=1;whiteSpace=wrap;html=1;" vertex="1" parent="1">
          <mxGeometry x="440" y="825" width="130" height="30" as="geometry" />
        </mxCell>
        <mxCell id="SyQa6RfPvhrmWZgXi87a-48" value="" style="edgeStyle=orthogonalEdgeStyle;rounded=0;orthogonalLoop=1;jettySize=auto;html=1;" edge="1" parent="1" source="SyQa6RfPvhrmWZgXi87a-43" target="SyQa6RfPvhrmWZgXi87a-47">
          <mxGeometry relative="1" as="geometry" />
        </mxCell>
        <mxCell id="SyQa6RfPvhrmWZgXi87a-43" value="&lt;span style=&quot;font-size: 11px;&quot;&gt;Lakukan Hash Password yang Baru Dengan Bycrypt&lt;/span&gt;" style="rounded=1;whiteSpace=wrap;html=1;" vertex="1" parent="1">
          <mxGeometry x="260.47" y="920" width="149.06" height="30" as="geometry" />
        </mxCell>
        <mxCell id="SyQa6RfPvhrmWZgXi87a-50" value="" style="edgeStyle=orthogonalEdgeStyle;rounded=0;orthogonalLoop=1;jettySize=auto;html=1;" edge="1" parent="1" source="SyQa6RfPvhrmWZgXi87a-47" target="SyQa6RfPvhrmWZgXi87a-49">
          <mxGeometry relative="1" as="geometry" />
        </mxCell>
        <mxCell id="SyQa6RfPvhrmWZgXi87a-47" value="&lt;span style=&quot;font-size: 11px;&quot;&gt;Update Password Lama yang Ada di Database Dengan yang Baru&amp;nbsp;dan batalkan token dan tanggal kedaluwarsa&lt;/span&gt;" style="rounded=1;whiteSpace=wrap;html=1;" vertex="1" parent="1">
          <mxGeometry x="234.54" y="970" width="200.93" height="50" as="geometry" />
        </mxCell>
        <mxCell id="SyQa6RfPvhrmWZgXi87a-52" value="" style="edgeStyle=orthogonalEdgeStyle;rounded=0;orthogonalLoop=1;jettySize=auto;html=1;" edge="1" parent="1" source="SyQa6RfPvhrmWZgXi87a-49" target="SyQa6RfPvhrmWZgXi87a-51">
          <mxGeometry relative="1" as="geometry" />
        </mxCell>
        <mxCell id="SyQa6RfPvhrmWZgXi87a-49" value="&lt;span style=&quot;font-size: 11px;&quot;&gt;Update Password Lama yang Ada di Database Dengan yang Baru&amp;nbsp;dan batalkan token dan tanggal kedaluwarsa&lt;/span&gt;" style="rounded=1;whiteSpace=wrap;html=1;" vertex="1" parent="1">
          <mxGeometry x="234.54" y="1040" width="200.93" height="50" as="geometry" />
        </mxCell>
        <mxCell id="SyQa6RfPvhrmWZgXi87a-56" value="" style="edgeStyle=orthogonalEdgeStyle;rounded=0;orthogonalLoop=1;jettySize=auto;html=1;" edge="1" parent="1" source="SyQa6RfPvhrmWZgXi87a-51" target="SyQa6RfPvhrmWZgXi87a-53">
          <mxGeometry relative="1" as="geometry" />
        </mxCell>
        <mxCell id="SyQa6RfPvhrmWZgXi87a-51" value="&lt;span style=&quot;font-size: 11px;&quot;&gt;Return Succes Message Response.Status(200)&lt;/span&gt;" style="rounded=1;whiteSpace=wrap;html=1;" vertex="1" parent="1">
          <mxGeometry x="272.27" y="1110" width="125.46" height="30" as="geometry" />
        </mxCell>
        <mxCell id="SyQa6RfPvhrmWZgXi87a-53" value="&lt;span style=&quot;font-size: 11px;&quot;&gt;End&lt;/span&gt;" style="rounded=1;whiteSpace=wrap;html=1;" vertex="1" parent="1">
          <mxGeometry x="302.74" y="1160" width="64.53" height="20" as="geometry" />
        </mxCell>
      </root>
    </mxGraphModel>
  </diagram>
</mxfile>
